# xmcd CD database file
#
# Track frame offsets:
#	150
#	2194
#	21420
#	40611
#	57212
#	75989
#	99658
#	100803
#	118971
#	138064
#	155236
#	171355
#	172191
#	194391
#	211245
#	231358
#
# Disc length: 3340 seconds
#
# Revision: 0
# Processed by: cddbd v1.5.1PL2 Copyright (c) Steve Scherf et al.
# Submitted via: CDex 1.60beta1
#
DISCID=d90d0a10
DTITLE=すいーつたんけんたい - NA NA NA
DYEAR=2006
DGENRE=Anime
TTITLE0=introduction
TTITLE1=Rosy
TTITLE2=DESTINY (ALBUM VER.)
TTITLE3=BLUE SKY -TRICK STAR MIX (ALBUM VER.)
TTITLE4=プライマリーメモリー　(ALBUM VER.)
TTITLE5=なつかしい風 -ホワイトブレス-
TTITLE6=ぼくらのすいーつたんけんたい/オカザキシュン(4-EVER)
TTITLE7=ECHO (ALBUM VER.)
TTITLE8=NA NA IRO (小池雅也8BIT MIX)
TTITLE9=Summer Day's -これからもずっと-
TTITLE10=スマイル０円 (ALBUM VER.)
TTITLE11=ぼくらのすいーつたんけんたい/MOSAIC.WAV
TTITLE12=プラスチックスマイル　虹色コーラスMIX (ALBUM VER.)
TTITLE13=ONE DAY (ALBUM VER.)
TTITLE14=アルバム
TTITLE15=NA NA IRO (ALBUM VER.)
EXTD=YEAR: 2006
EXTT0=
EXTT1=
EXTT2=
EXTT3=
EXTT4=
EXTT5=
EXTT6=
EXTT7=
EXTT8=
EXTT9=
EXTT10=
EXTT11=
EXTT12=
EXTT13=
EXTT14=
EXTT15=
PLAYORDER=
